<svg xmlns="http://www.w3.org/2000/svg" viewBox="0 0 24 24">
  <path fill="#FCBFBD" d="M23.94 8.51c.15-.72.04-1.47-.34-2.1a2.83 2.83 0 0 0-1.91-1.35 2.92 2.92 0 0 0-3.38 2.28 7.1 7.1 0 0 1-.92 2.27.26.26 0 0 1-.46-.03l-2.85-5.99a3 3 0 0 0-1.83-1.6 2.95 2.95 0 0 0-3.4 1.53L5.9 9.73a.21.21 0 0 1-.38 0 2.86 2.86 0 0 0-3.77-1.58 2.91 2.91 0 0 0-1.52 3.82 10.7 10.7 0 0 0 2.66 3.67c.08.08.1.2.06.3L2 17.95a2.93 2.93 0 0 0 1.27 3.86 2.87 2.87 0 0 0 3.88-1.34l.83-1.73a.25.25 0 0 1 .3-.14 11.45 11.45 0 0 0 6.3-.06.26.26 0 0 1 .3.14l.82 1.71a2.91 2.91 0 0 0 3.93 1.41 2.93 2.93 0 0 0 1.27-3.87l-1.03-2.15a.26.26 0 0 1 .06-.3 11.9 11.9 0 0 0 4-6.97ZM11.29 17.97c-4.21 0-8.66-2.85-10.13-6.49a1.83 1.83 0 0 1 3.39-1.37c.92 2.28 4 4.21 6.74 4.21.42 0 .84-.04 1.25-.12a.26.26 0 0 1 .29.14l1.37 2.9c.07.15 0 .32-.16.36-.9.24-1.82.37-2.75.37Zm7.86 2.9a1.83 1.83 0 0 1-2.47-.86L11.7 9.53a.27.27 0 0 0-.5 0l-1.54 3.25a.26.26 0 0 1-.32.14 7.44 7.44 0 0 1-2.79-1.72.26.26 0 0 1-.05-.3l3.34-7.03a1.83 1.83 0 0 1 3.26.08l6.86 14.43a1.84 1.84 0 0 1-.81 2.49Z"/>
</svg>
