<svg xmlns="http://www.w3.org/2000/svg" viewBox="0 0 24 24">
  <path fill="#7C3AED" d="M13.08.05a1.6 1.6 0 0 0-1.48.36L6.65 4.86a1.6 1.6 0 0 0-.51.95l-.61 4.13L2.82 16.06a1.6 1.6 0 0 0 .31 1.77l4.12 4.24c.3.3.71.49 1.17.52.78.02 2.1.09 3.16.29.87.16 2.59.64 4.01 1.05 1.08.32 2.2-.55 2.35-1.66.12-.82.33-1.74.73-2.58l2.54-4.11a.81.81 0 0 0-.06-.9 18.5 18.5 0 0 1-2.04-3.36 13.6 13.6 0 0 1-.64-4.38 1.7 1.7 0 0 0-.36-1.05L14.91 1.83a3.7 3.7 0 0 1-.61 2.04c-.57 1.24-1.69 3.02-1.89 5.13-.13 1.26.04 2.73.81 4.48a6.4 6.4 0 0 1 3.72 1.51 8.4 8.4 0 0 1 2.42 3.5l-.7 1.2c-.67-1.87-1.52-3.08-2.42-3.85a5.3 5.3 0 0 0-2.78-1.25c-1.54-.22-2.95.19-3.84.45.53 2.22.37 4.83-1.42 7.53l-.95-.5c2.1-3.1 1.8-6.02.84-8.3a12.6 12.6 0 0 0-2.55-3.83l.2-1.29a14 14 0 0 1 3.33 4.71l.25.65a11.8 11.8 0 0 1 2.75-.53 9.9 9.9 0 0 1-.72-4.58c.15-1.55.7-2.85 1.24-3.95.47-.98 1-1.86 1.2-2.8.16-.76-.05-1.4-.7-2.1Z"/>
</svg>
